<svg xmlns="http://www.w3.org/2000/svg"  viewBox="0 0 50 50" width="100px" height="100px" baseProfile="basic"><path d="M7.854,11.705C7.771,9.257,9.628,7,12.139,7h25.726c2.511,0,4.368,2.257,4.285,4.705c-0.08,2.351,0.024,5.397,0.77,7.88	c0.749,2.491,2.012,4.066,4.08,4.268v2.294c-2.068,0.202-3.331,1.777-4.08,4.268c-0.747,2.483-0.85,5.529-0.77,7.88	C42.232,40.743,40.375,43,37.864,43H12.139c-2.511,0-4.368-2.257-4.285-4.705c0.08-2.351-0.024-5.397-0.771-7.88	C6.335,27.924,5.069,26.349,3,26.147v-2.294c2.068-0.202,3.335-1.777,4.083-4.268C7.83,17.102,7.934,14.056,7.854,11.705z"/><path fill="#fff" d="M27.79,24.451v-0.029c1.911-0.33,3.402-2.121,3.402-4.094c0-1.395-0.536-2.576-1.551-3.416	c-1.011-0.837-2.431-1.28-4.105-1.28h-7.669v18.734h7.709c2.003,0,3.666-0.489,4.808-1.415c1.144-0.927,1.749-2.276,1.749-3.901	C32.133,26.596,30.389,24.752,27.79,24.451z M24.199,23.568h-3.28v-5.484h3.903c2.141,0,3.32,0.939,3.32,2.645	C28.141,22.56,26.741,23.568,24.199,23.568z M20.919,25.864h3.876c2.8,0,4.22,1.012,4.22,3.007c0,1.993-1.4,3.046-4.048,3.046	h-4.048V25.864z"/></svg>